<mxfile host="app.diagrams.net" modified="2023-06-30T20:06:39.686Z" agent="Mozilla/5.0 (Macintosh; Intel Mac OS X 10_15_7) AppleWebKit/605.1.15 (KHTML, like Gecko) Version/16.5.1 Safari/605.1.15" version="21.5.2" etag="sy-dZx5pz94q28ys_-35" type="github">
  <diagram name="Page-1" id="-LpNp2KD5rqeduoouNWX">
    <mxGraphModel>
      <root>
        <mxCell id="0" />
        <mxCell id="1" parent="0" />
      </root>
    </mxGraphModel>
  </diagram>
</mxfile>
